# xmcd CD database file
#
# Track frame offsets:
#	150
#	16282
#	31312
#	47182
#	64902
#	80310
#	94332
#	110692
#	128325
#	150435
#	165550
#
# Disc length: 2498 seconds
#
# Revision: 4
# Processed by: cddbd v1.5.2PL0 Copyright (c) Steve Scherf et al.
# Submitted via: CDex 1.51
#
DISCID=8009c00b
DTITLE=Chitãozinho and Xororó - Nossas Canções Preferidas
DYEAR=1998
DGENRE=Country
TTITLE0=Faz Um Ano
TTITLE1=Tenho Ciúme De Tudo
TTITLE2=Será Que Eu Sou
TTITLE3=O Último Julgamento
TTITLE4=Galopeira
TTITLE5=Cheiro De Relva
TTITLE6=Manhã De Sol
TTITLE7=Adeus Solidão
TTITLE8=O Que Mais Você Quer De Mim
TTITLE9=Terra Querida
TTITLE10=De Coração Para Coração
EXTD=YEAR: 1998
EXTT0=
EXTT1=
EXTT2=
EXTT3=
EXTT4=
EXTT5=
EXTT6=
EXTT7=
EXTT8=
EXTT9=
EXTT10=
PLAYORDER=
